<svg width="24" height="39" viewBox="0 0 24 39" fill="none" xmlns="http://www.w3.org/2000/svg">
<path d="M0 4.8C0 2.1525 2.1525 0 4.8 0H19.2C21.8475 0 24 2.1525 24 4.8V33.6C24 36.2475 21.8475 38.4 19.2 38.4H4.8C2.1525 38.4 0 36.2475 0 33.6V4.8ZM4.8 12V16.8C4.8 18.1275 5.8725 19.2 7.2 19.2H16.8C18.1275 19.2 19.2 18.1275 19.2 16.8V12C19.2 10.6725 18.1275 9.6 16.8 9.6H7.2C5.8725 9.6 4.8 10.6725 4.8 12ZM6 26.4C6.47739 26.4 6.93523 26.2104 7.27279 25.8728C7.61036 25.5352 7.8 25.0774 7.8 24.6C7.8 24.1226 7.61036 23.6648 7.27279 23.3272C6.93523 22.9896 6.47739 22.8 6 22.8C5.52261 22.8 5.06477 22.9896 4.72721 23.3272C4.38964 23.6648 4.2 24.1226 4.2 24.6C4.2 25.0774 4.38964 25.5352 4.72721 25.8728C5.06477 26.2104 5.52261 26.4 6 26.4ZM7.8 30.6C7.8 30.1226 7.61036 29.6648 7.27279 29.3272C6.93523 28.9896 6.47739 28.8 6 28.8C5.52261 28.8 5.06477 28.9896 4.72721 29.3272C4.38964 29.6648 4.2 30.1226 4.2 30.6C4.2 31.0774 4.38964 31.5352 4.72721 31.8728C5.06477 32.2104 5.52261 32.4 6 32.4C6.47739 32.4 6.93523 32.2104 7.27279 31.8728C7.61036 31.5352 7.8 31.0774 7.8 30.6ZM12 26.4C12.4774 26.4 12.9352 26.2104 13.2728 25.8728C13.6104 25.5352 13.8 25.0774 13.8 24.6C13.8 24.1226 13.6104 23.6648 13.2728 23.3272C12.9352 22.9896 12.4774 22.8 12 22.8C11.5226 22.8 11.0648 22.9896 10.7272 23.3272C10.3896 23.6648 10.2 24.1226 10.2 24.6C10.2 25.0774 10.3896 25.5352 10.7272 25.8728C11.0648 26.2104 11.5226 26.4 12 26.4ZM13.8 30.6C13.8 30.1226 13.6104 29.6648 13.2728 29.3272C12.9352 28.9896 12.4774 28.8 12 28.8C11.5226 28.8 11.0648 28.9896 10.7272 29.3272C10.3896 29.6648 10.2 30.1226 10.2 30.6C10.2 31.0774 10.3896 31.5352 10.7272 31.8728C11.0648 32.2104 11.5226 32.4 12 32.4C12.4774 32.4 12.9352 32.2104 13.2728 31.8728C13.6104 31.5352 13.8 31.0774 13.8 30.6ZM18 26.4C18.4774 26.4 18.9352 26.2104 19.2728 25.8728C19.6104 25.5352 19.8 25.0774 19.8 24.6C19.8 24.1226 19.6104 23.6648 19.2728 23.3272C18.9352 22.9896 18.4774 22.8 18 22.8C17.5226 22.8 17.0648 22.9896 16.7272 23.3272C16.3896 23.6648 16.2 24.1226 16.2 24.6C16.2 25.0774 16.3896 25.5352 16.7272 25.8728C17.0648 26.2104 17.5226 26.4 18 26.4ZM19.8 30.6C19.8 30.1226 19.6104 29.6648 19.2728 29.3272C18.9352 28.9896 18.4774 28.8 18 28.8C17.5226 28.8 17.0648 28.9896 16.7272 29.3272C16.3896 29.6648 16.2 30.1226 16.2 30.6C16.2 31.0774 16.3896 31.5352 16.7272 31.8728C17.0648 32.2104 17.5226 32.4 18 32.4C18.4774 32.4 18.9352 32.2104 19.2728 31.8728C19.6104 31.5352 19.8 31.0774 19.8 30.6ZM9.6 3.6C8.94 3.6 8.4 4.14 8.4 4.8C8.4 5.46 8.94 6 9.6 6H14.4C15.06 6 15.6 5.46 15.6 4.8C15.6 4.14 15.06 3.6 14.4 3.6H9.6Z" fill="#6E0C0E"/>
</svg>
